<?xml version="1.0" encoding="UTF-8"?>
<svg width="216px" height="216px" viewBox="0 0 216 216" version="1.1" xmlns="http://www.w3.org/2000/svg" xmlns:xlink="http://www.w3.org/1999/xlink">
    <!-- Generator: Sketch 55.2 (78181) - https://sketchapp.com -->
    <title>Group 32</title>
    <desc>Created with Sketch.</desc>
    <g id="New" stroke="none" stroke-width="1" fill="none" fill-rule="evenodd">
        <g id="Group-32">
            <rect id="Rectangle" fill="#F5363B" x="0" y="0" width="216" height="216"></rect>
            <g id="Group-31" transform="translate(22.000000, 40.000000)" fill="#FFFFFF">
                <path d="M85.284585,52.2492492 C85.284585,32.5015015 101.162055,16.4564565 120.703557,16.4564565 C140.245059,16.4564565 156.12253,32.5015015 156.12253,52.2492492 C156.12253,71.996997 140.245059,88.042042 120.703557,88.042042 C101.162055,87.6306306 85.284585,71.5855856 85.284585,52.2492492 M172,52.2492492 C172,23.4504505 148.794466,0 120.296443,0 C92.2055336,0 69,23.4504505 69,52.2492492 C69,81.048048 92.2055336,104.498498 120.703557,104.498498 C125.588933,104.498498 130.067194,103.675676 134.13834,102.441441 L149.608696,137 L164.264822,130.006006 L148.794466,95.4474474 C163.043478,85.984985 172,70.3513514 172,52.2492492" id="Fill-1"></path>
                <polygon id="Fill-11" points="26.8076923 25 14.1923077 25 14.1923077 39.7480916 0 39.7480916 0 52.2519084 14.1923077 52.2519084 14.1923077 67 26.8076923 67 26.8076923 52.2519084 41 52.2519084 41 39.7480916 26.8076923 39.7480916"></polygon>
            </g>
        </g>
    </g>
</svg>